<svg width="340" height="327" viewBox="0 0 340 327" fill="none" xmlns="http://www.w3.org/2000/svg">
<g clip-path="url(#clip0_148_1400)">
<mask id="mask0_148_1400" style="mask-type:luminance" maskUnits="userSpaceOnUse" x="0" y="0" width="340" height="327">
<path d="M340 0H0V327H340V0Z" fill="white"/>
</mask>
<g mask="url(#mask0_148_1400)">
<g opacity="0.3">
<path d="M174.493 47.735C240.924 47.735 294.86 99.6093 294.86 163.5C294.86 227.391 240.924 279.265 174.493 279.265C108.062 279.265 54.1258 227.391 54.1258 163.5C54.1258 99.6093 108.062 47.735 174.493 47.735Z" fill="#C8B3FC" fill-opacity="0.49"/>
<path d="M174.493 47.735C240.924 47.735 294.86 99.6093 294.86 163.5C294.86 227.391 240.924 279.265 174.493 279.265C108.062 279.265 54.1258 227.391 54.1258 163.5C54.1258 99.6093 108.062 47.735 174.493 47.735Z" stroke="#7642F9" stroke-width="2.577" stroke-miterlimit="10"/>
</g>
<path d="M80.3284 54.067C86.3467 54.067 91.2331 58.7665 91.2331 64.5547C91.2331 70.3428 86.3467 75.0424 80.3284 75.0424C74.3102 75.0424 69.4238 70.3428 69.4238 64.5547C69.4238 58.7665 74.3102 54.067 80.3284 54.067Z" fill="url(#paint0_linear_148_1400)"/>
<path d="M87.8051 155.343C89.6971 155.343 91.2333 156.821 91.2333 158.64C91.2333 160.46 89.6971 161.938 87.8051 161.938C85.913 161.938 84.3768 160.46 84.3768 158.64C84.3768 156.821 85.913 155.343 87.8051 155.343Z" fill="url(#paint1_linear_148_1400)"/>
<path d="M257.008 75.0425C260.814 75.0425 263.904 78.0144 263.904 81.6748C263.904 85.3351 260.814 88.307 257.008 88.307C253.202 88.307 250.112 85.3351 250.112 81.6748C250.112 78.0144 253.202 75.0425 257.008 75.0425Z" fill="url(#paint2_linear_148_1400)"/>
<path d="M276.757 241.865C280.883 241.865 284.233 245.087 284.233 249.055C284.233 253.023 280.883 256.245 276.757 256.245C272.631 256.245 269.281 253.023 269.281 249.055C269.281 245.087 272.631 241.865 276.757 241.865Z" fill="url(#paint3_linear_148_1400)"/>
<path d="M49.3506 216.181C51.6748 216.181 53.5619 217.996 53.5619 220.231C53.5619 222.467 51.6748 224.282 49.3506 224.282C47.0265 224.282 45.1394 222.467 45.1394 220.231C45.1394 217.996 47.0265 216.181 49.3506 216.181Z" fill="url(#paint4_linear_148_1400)"/>
<path d="M213.3 214.184H135.351C128.193 214.184 122.391 208.603 122.391 201.719V139.237C122.391 132.353 128.193 126.773 135.351 126.773H213.3C220.458 126.773 226.26 132.353 226.26 139.237V201.719C226.26 208.603 220.458 214.184 213.3 214.184Z" fill="url(#paint5_linear_148_1400)"/>
<path d="M201.304 126.773V114.43C201.304 100.229 189.334 88.7164 174.568 88.7164C159.802 88.7164 147.832 100.229 147.832 114.43V126.773" stroke="url(#paint6_linear_148_1400)" stroke-width="33.505" stroke-miterlimit="10"/>
<g opacity="0.5">
<path d="M204.513 179.547C200.942 179.547 198.021 176.737 198.021 173.303C198.021 169.869 200.942 167.059 204.513 167.059C208.083 167.059 211.005 169.869 211.005 173.303C211.005 176.737 208.083 179.547 204.513 179.547Z" fill="white"/>
<path d="M184.388 179.547C180.817 179.547 177.896 176.737 177.896 173.303C177.896 169.869 180.817 167.059 184.388 167.059C187.958 167.059 190.88 169.869 190.88 173.303C190.88 176.737 187.958 179.547 184.388 179.547Z" fill="white"/>
<path d="M164.263 179.547C160.692 179.547 157.771 176.737 157.771 173.303C157.771 169.869 160.692 167.059 164.263 167.059C167.834 167.059 170.755 169.869 170.755 173.303C170.755 176.737 167.834 179.547 164.263 179.547Z" fill="white"/>
<path d="M144.138 179.547C140.568 179.547 137.646 176.737 137.646 173.303C137.646 169.869 140.568 167.059 144.138 167.059C147.709 167.059 150.63 169.869 150.63 173.303C150.63 176.737 147.709 179.547 144.138 179.547Z" fill="white"/>
</g>
<path d="M204.513 179.547C200.942 179.547 198.021 176.737 198.021 173.303C198.021 169.869 200.942 167.059 204.513 167.059C208.083 167.059 211.005 169.869 211.005 173.303C211.005 176.737 208.083 179.547 204.513 179.547Z" fill="white"/>
<path d="M184.388 179.547C180.817 179.547 177.896 176.737 177.896 173.303C177.896 169.869 180.817 167.059 184.388 167.059C187.958 167.059 190.88 169.869 190.88 173.303C190.88 176.737 187.958 179.547 184.388 179.547Z" fill="white"/>
<g opacity="0.999997">
<path d="M164.263 179.547C160.693 179.547 157.771 176.737 157.771 173.303C157.771 169.869 160.693 167.059 164.263 167.059C167.834 167.059 170.755 169.869 170.755 173.303C170.755 176.737 167.834 179.547 164.263 179.547Z" fill="white"/>
</g>
<path d="M144.138 179.547C140.568 179.547 137.646 176.737 137.646 173.303C137.646 169.869 140.568 167.059 144.138 167.059C147.709 167.059 150.63 169.869 150.63 173.303C150.63 176.737 147.709 179.547 144.138 179.547Z" fill="white"/>
<path d="M242.197 205.49C241.377 204.675 240.528 203.833 240.205 203.091C239.909 202.412 239.886 201.283 239.863 200.191C239.821 198.16 239.773 195.857 238.101 194.264C236.429 192.67 234.036 192.646 231.924 192.624C230.79 192.612 229.616 192.6 228.907 192.322C228.134 192.019 227.25 191.21 226.395 190.428C224.892 189.055 223.19 187.499 220.931 187.509C218.671 187.519 216.985 189.09 215.496 190.475C214.649 191.264 213.774 192.081 213.003 192.391C212.297 192.675 211.123 192.697 209.989 192.719C207.878 192.759 205.485 192.804 203.829 194.412C202.173 196.02 202.149 198.323 202.127 200.354C202.115 201.446 202.103 202.575 201.814 203.257C201.499 204 200.659 204.851 199.847 205.673C198.42 207.118 196.803 208.756 196.814 210.93C196.825 213.103 198.459 214.727 199.9 216.159C200.72 216.975 201.569 217.817 201.891 218.558C202.187 219.238 202.211 220.367 202.234 221.458C202.276 223.49 202.323 225.792 203.996 227.385C205.667 228.98 208.061 229.004 210.172 229.025C211.307 229.037 212.48 229.049 213.19 229.328C213.962 229.631 214.847 230.44 215.702 231.221C217.204 232.594 218.907 234.151 221.166 234.141C223.425 234.131 225.112 232.56 226.6 231.174C227.448 230.385 228.323 229.569 229.093 229.259C229.799 228.974 230.973 228.952 232.107 228.93C234.219 228.89 236.612 228.846 238.267 227.237C239.924 225.63 239.948 223.327 239.969 221.295C239.981 220.204 239.993 219.075 240.283 218.392C240.597 217.649 241.438 216.798 242.25 215.976C243.676 214.531 245.293 212.894 245.282 210.72C245.271 208.546 243.638 206.923 242.197 205.49Z" fill="url(#paint7_linear_148_1400)"/>
</g>
<path d="M236.561 202.429L217.391 220.595L208.677 212.338" stroke="white" stroke-width="3.75" stroke-linecap="round" stroke-linejoin="round"/>
</g>
<defs>
<linearGradient id="paint0_linear_148_1400" x1="72.3092" y1="56.8162" x2="87.1297" y2="72.2259" gradientUnits="userSpaceOnUse">
<stop stop-color="#7642F9"/>
<stop offset="0.5" stop-color="#7642F9"/>
<stop offset="1" stop-color="#7642F9"/>
</linearGradient>
<linearGradient id="paint1_linear_148_1400" x1="85.2296" y1="156.271" x2="89.889" y2="161.116" gradientUnits="userSpaceOnUse">
<stop stop-color="#7642F9"/>
<stop offset="0.703125" stop-color="#7642F9"/>
<stop offset="1" stop-color="#7642F9"/>
</linearGradient>
<linearGradient id="paint2_linear_148_1400" x1="250.032" y1="81.6685" x2="263.824" y2="81.6685" gradientUnits="userSpaceOnUse">
<stop stop-color="#7642F9"/>
<stop offset="0.5" stop-color="#7642F9"/>
<stop offset="1" stop-color="#7D49FF" stop-opacity="0.84"/>
</linearGradient>
<linearGradient id="paint3_linear_148_1400" x1="271.112" y1="243.627" x2="281.273" y2="254.192" gradientUnits="userSpaceOnUse">
<stop stop-color="#7642F9"/>
<stop offset="0.5" stop-color="#7642F9"/>
<stop offset="1" stop-color="#7642F9"/>
</linearGradient>
<linearGradient id="paint4_linear_148_1400" x1="45.0609" y1="219.99" x2="53.4833" y2="219.99" gradientUnits="userSpaceOnUse">
<stop stop-color="#7642F9"/>
<stop offset="0.5" stop-color="#7D49FF" stop-opacity="0.84"/>
<stop offset="1" stop-color="#7642F9"/>
</linearGradient>
<linearGradient id="paint5_linear_148_1400" x1="136.181" y1="134.035" x2="206.766" y2="207.426" gradientUnits="userSpaceOnUse">
<stop stop-color="#7742F9"/>
<stop offset="0.526042" stop-color="#7D49FF" stop-opacity="0.84"/>
<stop offset="1" stop-color="#C8B3FC"/>
</linearGradient>
<linearGradient id="paint6_linear_148_1400" x1="205.541" y1="128.803" x2="148.722" y2="94.6943" gradientUnits="userSpaceOnUse">
<stop stop-color="#7642F9"/>
<stop offset="0.5" stop-color="#7D49FF" stop-opacity="0.84"/>
<stop offset="1" stop-color="#7D49FF" stop-opacity="0.84"/>
</linearGradient>
<linearGradient id="paint7_linear_148_1400" x1="204.167" y1="194.717" x2="237.024" y2="228.55" gradientUnits="userSpaceOnUse">
<stop stop-color="#5DD99E"/>
<stop offset="0.49" stop-color="#3AD189"/>
<stop offset="0.99" stop-color="#17C974"/>
</linearGradient>
<clipPath id="clip0_148_1400">
<rect width="340" height="327" fill="white"/>
</clipPath>
</defs>
</svg>
