<svg width="31" height="33" viewBox="0 0 31 33" fill="none" xmlns="http://www.w3.org/2000/svg">
<path d="M30.9594 29.9742C30.9594 29.9742 29.5608 26.2999 29.5367 26.2543L25.8881 19.3647C25.7762 19.1533 25.5513 19.0203 25.3057 19.02L6.70662 19C6.70634 19 6.70613 19 6.70586 19C6.46002 19 6.23481 19.1331 6.12275 19.3447L2.46357 26.2544C2.43957 26.2996 1.04062 29.9743 1.04062 29.9743C0.966354 30.1686 0.995041 30.3857 1.11751 30.5558C1.23998 30.7258 1.44078 30.8271 1.65511 30.8271H2.17663V31.6136C2.17663 32.3598 2.80456 32.9669 3.57648 32.9669H7.9369C8.70881 32.9669 9.33688 32.3599 9.33688 31.6136V30.8271H22.6629V31.6136C22.6629 32.3598 23.2909 32.9669 24.0628 32.9669H28.4234C29.1952 32.9669 29.8232 32.3599 29.8232 31.6136V30.8271H30.3448C30.5591 30.8271 30.76 30.7257 30.8824 30.5558C31.005 30.3857 31.0337 30.1685 30.9594 29.9742ZM7.10623 20.267L24.9042 20.2861L27.8823 25.9096H4.11801L7.10623 20.267ZM8.02675 31.6135C8.02675 31.6597 7.98482 31.7003 7.93696 31.7003H3.57655C3.52883 31.7003 3.4869 31.6598 3.4869 31.6135V30.827H8.02675V31.6135ZM28.5131 31.6135C28.5131 31.6597 28.4713 31.7003 28.4235 31.7003H24.0629C24.0151 31.7003 23.9731 31.6598 23.9731 31.6135V30.827H28.5131V31.6135ZM2.59569 29.5605L3.50745 27.1762H28.4927L29.4044 29.5605H2.59569Z" fill="#7642F9"/>
<path d="M30.8 6.6V8.8H28.6V13.2H26.4V15.4H23.1V8.8H7.7V15.4H4.4V13.2H2.2V8.8H0V6.6H2.2V2.2H4.4V0H7.7V6.6H23.1V0H26.4V2.2H28.6V6.6H30.8Z" fill="#7642F9"/>
</svg>
