<svg width="52" height="52" viewBox="0 0 52 52" fill="none" xmlns="http://www.w3.org/2000/svg">
<g id="Group 12">
<circle id="Ellipse 53" cx="26" cy="26" r="26" fill="#C8B3FC" fill-opacity="0.35"/>
<path id="Vector" d="M37.9167 8.05398C37.9167 7.77772 37.8069 7.51277 37.6116 7.31742C37.4162 7.12207 37.1513 7.01232 36.875 7.01232H31.6667C29.044 6.88167 26.4762 7.79438 24.5244 9.55103C22.5726 11.3077 21.3954 13.7654 21.25 16.3873V22.0123H16.0417C15.7654 22.0123 15.5004 22.1221 15.3051 22.3174C15.1097 22.5128 15 22.7777 15 23.054V28.4707C15 28.7469 15.1097 29.0119 15.3051 29.2072C15.5004 29.4026 15.7654 29.5123 16.0417 29.5123H21.25V43.4706C21.25 43.7469 21.3597 44.0119 21.5551 44.2072C21.7504 44.4026 22.0154 44.5123 22.2917 44.5123H28.5417C28.8179 44.5123 29.0829 44.4026 29.2782 44.2072C29.4736 44.0119 29.5833 43.7469 29.5833 43.4706V29.5123H35.0417C35.2733 29.5156 35.4995 29.4417 35.6843 29.302C35.8692 29.1624 36.0023 28.9652 36.0625 28.7415L37.5625 23.3248C37.6039 23.1709 37.6095 23.0095 37.5788 22.8531C37.5481 22.6967 37.4818 22.5495 37.3852 22.4227C37.2886 22.2959 37.1642 22.193 37.0216 22.1218C36.879 22.0507 36.7219 22.0132 36.5625 22.0123H29.5833V16.3873C29.6352 15.8716 29.8773 15.3938 30.2625 15.0471C30.6478 14.7004 31.1484 14.5097 31.6667 14.5123H36.875C37.1513 14.5123 37.4162 14.4026 37.6116 14.2072C37.8069 14.0119 37.9167 13.7469 37.9167 13.4707V8.05398Z" fill="#0E286B"/>
</g>
</svg>
