<svg width="52" height="52" viewBox="0 0 52 52" fill="none" xmlns="http://www.w3.org/2000/svg">
<g id="Group 11">
<circle id="Ellipse 54" cx="26" cy="26" r="26" fill="#C8B3FC" fill-opacity="0.35"/>
<g id="Icons">
<g id="Color-">
<g id="Google">
<path id="Fill-1" fill-rule="evenodd" clip-rule="evenodd" d="M17.2791 26C17.2791 25.0257 17.4444 24.0916 17.7395 23.2155L12.574 19.355C11.5672 21.3555 11 23.6096 11 26C11 28.3884 11.5665 30.6411 12.5719 32.6402L17.7347 28.7723C17.4423 27.9002 17.2791 26.9696 17.2791 26Z" fill="#FBBC05"/>
<path id="Fill-2" fill-rule="evenodd" clip-rule="evenodd" d="M26.3489 17.1364C28.5116 17.1364 30.4651 17.8864 32 19.1136L36.4651 14.75C33.7442 12.4318 30.2558 11 26.3489 11C20.2833 11 15.0703 14.3948 12.574 19.355L17.7396 23.2155C18.9298 19.6795 22.3226 17.1364 26.3489 17.1364Z" fill="#EB4335"/>
<path id="Fill-3" fill-rule="evenodd" clip-rule="evenodd" d="M26.3489 34.8636C22.3226 34.8636 18.9298 32.3205 17.7396 28.7845L12.574 32.6443C15.0703 37.6052 20.2833 41 26.3489 41C30.0926 41 33.6668 39.6991 36.3493 37.2616L31.4461 33.5518C30.0626 34.4048 28.3205 34.8636 26.3489 34.8636Z" fill="#34A853"/>
<path id="Fill-4" fill-rule="evenodd" clip-rule="evenodd" d="M41 26C41 25.1136 40.8605 24.1591 40.6512 23.2727H26.3489V29.0682H34.5814C34.1698 31.0441 33.0493 32.5632 31.4461 33.5518L36.3493 37.2616C39.1672 34.7021 41 30.8893 41 26Z" fill="#4285F4"/>
</g>
</g>
</g>
</g>
</svg>
