<svg width="45" height="37" viewBox="0 0 45 37" fill="none" xmlns="http://www.w3.org/2000/svg">
<path d="M18.068 1.6731C18.068 0.749413 17.3186 0 16.3949 0H5.10755C4.18386 0 3.43445 0.749413 3.43445 1.6731V5.2639H18.0681L18.068 1.6731Z" fill="#7642F9"/>
<path d="M18.9851 11.6124C17.5007 10.8696 17.0048 9.1362 17.0048 7.65074C17.0048 7.55467 17.0048 7.41285 17.0048 7.23079C17.0048 7.16374 17.0048 7.10119 17.0048 7.02077H4.49777C4.49777 7.10119 4.49777 7.16374 4.49777 7.23079C4.49777 7.25316 4.49777 7.37153 4.49777 7.65074C4.49777 9.1362 4.00183 10.8696 2.51751 11.6124C0.743838 12.4981 0 13.8182 0 16.9713C0 18.096 0 28.6061 0 30.4076C0 33.4467 2.13887 36.5986 6.41769 36.5986H15.0848C19.3636 36.5986 21.5025 33.4467 21.5025 30.4076C21.5025 28.6061 21.5025 18.0961 21.5025 16.9713C21.5025 13.8183 20.7587 12.4981 18.9851 11.6124ZM17.9821 29.0729H3.52047V17.2662H17.9821V29.0729H17.9821Z" fill="#7642F9"/>
<path d="M9.51374 27.6578H11.9876V24.7203H14.924V22.2486H11.9876V19.3112H9.51374V22.2486H6.57849V24.7203H9.51374V27.6578Z" fill="#7642F9"/>
<g clip-path="url(#clip0_65_643)">
<path d="M42.8484 22.1853L32.3227 11.7785L32.325 11.7834C31.1387 10.5944 29.5753 9.99736 28.0193 10C26.4656 9.99736 24.902 10.5944 23.7157 11.7834C22.527 12.9694 21.9302 14.5304 21.9325 16.087C21.9302 17.6427 22.527 19.2061 23.7157 20.3925L26.1998 22.8499C26.1249 22.8476 26.0499 22.8476 25.9752 22.8476C23.9379 22.8476 22.0873 23.3599 20.7026 24.2272C20.0115 24.662 19.434 25.1864 19.0232 25.7977C18.6102 26.4068 18.3684 27.1074 18.3684 27.8469V31.9981C18.3684 32.7372 18.6102 33.4382 19.0232 34.0472C19.6419 34.9629 20.6251 35.6899 21.8238 36.2004C23.0247 36.71 24.4479 36.9974 25.9752 37C28.0096 36.9974 29.8604 36.4854 31.2449 35.6178C31.9383 35.1853 32.5134 34.6586 32.9266 34.0473C33.3376 33.4382 33.5792 32.7373 33.5792 31.9981V30.1448L34.2412 30.8001L34.2389 30.7948C35.4251 31.9834 36.9887 32.5808 38.5446 32.5782C40.0985 32.5808 41.6618 31.9834 42.8483 30.7974C44.037 29.6084 44.6315 28.0477 44.6315 26.4912C44.6316 24.935 44.037 23.3739 42.8484 22.1853ZM25.4605 17.8409C24.453 16.8311 24.453 15.1709 25.4748 14.149C25.9677 13.656 26.6249 13.383 27.3259 13.383L25.4605 17.8409ZM19.5766 27.8469C19.5788 27.3709 19.7263 26.9168 20.0238 26.4718C20.2849 26.0832 20.6688 25.7108 21.1496 25.38L30.3945 30.7902C30.1843 30.9059 29.9621 31.0148 29.7274 31.1138C28.6668 31.5656 27.3717 31.8315 25.9753 31.8315C24.1095 31.8341 22.4278 31.3555 21.2416 30.6088C20.6473 30.2345 20.1785 29.7966 19.8643 29.3282C19.748 29.1539 19.6516 28.9778 19.5766 28.7966L19.5766 27.8469ZM32.3711 31.9981C32.3711 32.4741 32.2212 32.9286 31.9242 33.3728C31.4792 34.0352 30.6893 34.6488 29.6527 35.0889C28.6185 35.5286 27.3474 35.7921 25.9752 35.7921C24.1435 35.7921 22.4932 35.3207 21.3456 34.5959C20.7704 34.2356 20.3208 33.8129 20.0238 33.3728C19.7263 32.9286 19.5788 32.4741 19.5766 31.9981V30.2851C20.1612 30.9324 20.9588 31.4715 21.8987 31.87C23.0729 32.3683 24.472 32.6533 25.9752 32.6533C27.9782 32.6533 29.7953 32.1478 31.1435 31.3021C31.617 31.0075 32.0303 30.6669 32.3711 30.2873V31.9981ZM32.3711 28.7966C32.3567 28.8329 32.342 28.8666 32.3227 28.9028C32.2576 29.048 32.1777 29.1879 32.0834 29.3282C31.8805 29.6325 31.6074 29.9203 31.2837 30.1883L22.1306 24.8337C22.1862 24.8094 22.2395 24.7803 22.295 24.7588C23.3291 24.3191 24.6002 24.0556 25.9753 24.0556C26.5163 24.0556 27.0409 24.0967 27.5409 24.1743C28.7347 24.3554 29.7929 24.7418 30.6024 25.2491C30.7014 25.3096 30.7957 25.375 30.885 25.4404C31.3223 25.752 31.6679 26.0975 31.912 26.4578C31.9169 26.4624 31.9216 26.4673 31.9243 26.4718C32.2213 26.9168 32.3711 27.3709 32.3711 27.8468V28.7966H32.3711ZM41.8238 29.7701C40.9153 30.6767 39.7335 31.1281 38.5446 31.1281C37.3535 31.1281 36.1721 30.6786 35.2633 29.7701L35.2609 29.7678L33.5792 28.1055V27.8469C33.5792 27.1073 33.3376 26.4068 32.9267 25.7977C32.4098 25.0367 31.6439 24.4061 30.711 23.9229C30.8271 23.6208 30.9743 23.2919 31.1557 22.9543C31.6679 21.9921 32.4364 20.9482 33.4537 20.1463C34.466 19.3463 35.7106 18.7762 37.2497 18.6888L41.8214 23.2098H41.8238C42.7299 24.1183 43.1817 25.3025 43.1817 26.4911C43.1817 27.6801 42.7299 28.8643 41.8238 29.7701Z" fill="#7642F9"/>
</g>
<defs>
<clipPath id="clip0_65_643">
<rect width="27" height="27" fill="white" transform="translate(18 10)"/>
</clipPath>
</defs>
</svg>
