<svg width="60" height="54" viewBox="0 0 60 54" fill="none" xmlns="http://www.w3.org/2000/svg">
<path fill-rule="evenodd" clip-rule="evenodd" d="M26.9247 12.9412H15.4495C13.2212 12.9412 11.8777 14.5271 11.8777 16.36V35.4965C11.8777 37.3223 13.68 38.8047 15.9036 38.8047H26.4683C28.6942 38.8047 30.4942 37.3223 30.4942 35.4965V16.36C30.4965 14.5271 29.153 12.9412 26.9247 12.9412ZM28.2824 34.6894C28.2824 35.7153 27.0471 36.5529 25.5294 36.5529H16.8C15.28 36.5529 14.0495 35.7153 14.0495 34.6894V18.9976C14.0495 18.48 14.3812 16.1412 21.2471 18.2235C28.1177 20.3153 28.2824 18.4894 28.2824 18.9976V34.6894Z" fill="#7642F9"/>
<path fill-rule="evenodd" clip-rule="evenodd" d="M25.84 8.13647L22.8471 5.86353V2.78353C22.8471 1.88471 22.0659 1.15765 21.1035 1.15765C20.1435 1.15765 19.3647 1.88706 19.3647 2.78353V5.8047L16.5859 8.13412L16.5129 8.1247V10.5882H25.8424V8.12706L25.84 8.13647Z" fill="#7642F9"/>
<path d="M38.2671 37.5244L38.2941 37.5541C38.8756 38.1952 39.6057 38.3924 40.1776 38.1404C40.7496 37.8884 41.0968 37.2167 41.0162 36.3549L41.0125 36.3149L36.9478 27.0886L36.9208 27.0588C36.3392 26.4177 35.6092 26.2206 35.0372 26.4726C34.4653 26.7245 34.1181 27.3963 34.1986 28.2581L34.2024 28.2981L38.2671 37.5244ZM38.6845 37.2317L34.7001 28.1876C34.6436 27.4933 34.9005 27.0792 35.2388 26.9301C35.5772 26.7811 36.0562 26.871 36.5304 27.3813L40.5148 36.4253C40.5713 37.1196 40.3144 37.5338 39.976 37.6829C39.6377 37.8319 39.1587 37.742 38.6845 37.2317Z" fill="#7642F9"/>
<path d="M39.9547 34.7982C39.9547 34.7982 42.3319 34.8648 44.391 34.0987C45.4206 33.7156 46.3872 33.1177 46.9125 32.1629C47.4378 31.2081 47.4846 29.9226 46.7586 28.2748C46.0327 26.627 45.0526 25.794 43.9935 25.5372C42.9344 25.2804 41.8409 25.5901 40.8633 26.0913C38.9082 27.0936 37.353 28.8927 37.353 28.8927L37.7305 29.2216C37.7305 29.2216 39.2583 27.477 41.0917 26.537C42.0084 26.0671 42.9846 25.8065 43.8754 26.0225C44.7661 26.2384 45.6159 26.9212 46.3011 28.4764C46.9862 30.0316 46.9165 31.1195 46.4747 31.9225C46.0329 32.7256 45.1817 33.27 44.2163 33.6293C42.2853 34.3478 39.9669 34.2977 39.9669 34.2977L39.9547 34.7982Z" fill="#7642F9"/>
<path d="M29.4265 35.9101C30.0377 37.2972 31.6677 37.9275 33.0549 37.3164C34.4421 36.7052 35.0738 35.0785 34.4627 33.6914C33.8515 32.3042 32.2249 31.6725 30.8377 32.2836C29.4505 32.8947 28.8154 34.5229 29.4265 35.9101ZM29.8859 35.7077C29.3837 34.5678 29.9002 33.2452 31.0401 32.743C32.1799 32.2408 33.5011 32.7539 34.0033 33.8937C34.5055 35.0336 33.9939 36.3582 32.854 36.8604C31.7141 37.3625 30.3881 36.8476 29.8859 35.7077Z" fill="#7642F9"/>
<path d="M34.1676 36.2806L37.3705 34.8695L37.169 34.4119L33.966 35.823L34.1676 36.2806Z" fill="#7642F9"/>
<path d="M32.5551 32.6201L35.758 31.209L35.5564 30.7514L32.3535 32.1625L32.5551 32.6201Z" fill="#7642F9"/>
<path d="M39.5524 33.8826C39.5524 33.8826 41.6459 33.9345 43.4949 33.3314C44.4194 33.0298 45.2987 32.5631 45.8113 31.7997C46.3238 31.0363 46.4208 29.9883 45.8435 28.678C45.2663 27.3677 44.4275 26.732 43.5182 26.5949C42.609 26.4579 41.6711 26.7918 40.8247 27.2704C39.1317 28.2277 37.7571 29.8075 37.7571 29.8075L38.1328 30.1371C38.1328 30.1371 39.4834 28.6039 41.071 27.7061C41.8649 27.2573 42.7067 26.9778 43.4435 27.0889C44.1802 27.1999 44.8545 27.6733 45.386 28.8796C45.9174 30.0859 45.8116 30.9029 45.3963 31.5215C44.981 32.1401 44.2066 32.5727 43.3396 32.8555C41.6057 33.4211 39.5628 33.3829 39.5628 33.3829L39.5524 33.8826Z" fill="#7642F9"/>
<path d="M32.8649 36.3487C33.6196 35.8812 33.9411 34.9185 33.5734 34.0837L33.1006 34.292C33.3555 34.8707 33.1564 35.529 32.6566 35.876L32.8649 36.3487Z" fill="#7642F9"/>
<path d="M39.4766 35.854L39.9341 35.6524L36.7088 28.3314L36.2512 28.533L39.4766 35.854Z" fill="#7642F9"/>
<path d="M35.1208 35.0699L36.7 34.3742L36.196 33.2303L35.7385 33.4319L36.0408 34.1182L34.9193 34.6123L35.1208 35.0699Z" fill="#7642F9"/>
</svg>
