<svg width="450" height="256" viewBox="0 0 450 256" fill="none" xmlns="http://www.w3.org/2000/svg">
<path d="M450 26C450 26 377.723 260.004 221.246 255C18 248.5 0 26 0 26C0 26 98.222 26 221.246 26C344.27 26 450 26 450 26Z" fill="#7642F9"/>
<g filter="url(#filter0_f_321_562)">
<ellipse cx="59.5" cy="70.5" rx="37.5" ry="38.5" fill="#7D49FF" fill-opacity="0.84"/>
</g>
<g filter="url(#filter1_f_321_562)">
<path d="M243 38.5C243 43.5559 242.03 48.5623 240.145 53.2333C238.261 57.9043 235.499 62.1486 232.017 65.7236C228.534 69.2987 224.4 72.1346 219.851 74.0694C215.301 76.0042 210.425 77 205.5 77C200.575 77 195.699 76.0042 191.149 74.0694C186.6 72.1346 182.466 69.2987 178.983 65.7236C175.501 62.1486 172.739 57.9043 170.855 53.2333C168.97 48.5623 168 43.5559 168 38.5L205.5 38.5H243Z" fill="#7D49FF" fill-opacity="0.84"/>
</g>
<g filter="url(#filter2_f_321_562)">
<ellipse cx="342.5" cy="73.5" rx="37.5" ry="38.5" fill="#7D49FF" fill-opacity="0.84"/>
</g>
<g filter="url(#filter3_f_321_562)">
<ellipse cx="217.5" cy="128.5" rx="37.5" ry="38.5" fill="#7D49FF" fill-opacity="0.84"/>
</g>
<g filter="url(#filter4_f_321_562)">
<ellipse cx="104.5" cy="163.5" rx="37.5" ry="38.5" fill="#7D49FF" fill-opacity="0.84"/>
</g>
<g filter="url(#filter5_f_321_562)">
<ellipse cx="330.5" cy="163.5" rx="37.5" ry="38.5" fill="#7D49FF" fill-opacity="0.84"/>
</g>
<defs>
<filter id="filter0_f_321_562" x="7" y="17" width="105" height="107" filterUnits="userSpaceOnUse" color-interpolation-filters="sRGB">
<feFlood flood-opacity="0" result="BackgroundImageFix"/>
<feBlend mode="normal" in="SourceGraphic" in2="BackgroundImageFix" result="shape"/>
<feGaussianBlur stdDeviation="7.5" result="effect1_foregroundBlur_321_562"/>
</filter>
<filter id="filter1_f_321_562" x="153" y="23.5" width="105" height="68.5" filterUnits="userSpaceOnUse" color-interpolation-filters="sRGB">
<feFlood flood-opacity="0" result="BackgroundImageFix"/>
<feBlend mode="normal" in="SourceGraphic" in2="BackgroundImageFix" result="shape"/>
<feGaussianBlur stdDeviation="7.5" result="effect1_foregroundBlur_321_562"/>
</filter>
<filter id="filter2_f_321_562" x="290" y="20" width="105" height="107" filterUnits="userSpaceOnUse" color-interpolation-filters="sRGB">
<feFlood flood-opacity="0" result="BackgroundImageFix"/>
<feBlend mode="normal" in="SourceGraphic" in2="BackgroundImageFix" result="shape"/>
<feGaussianBlur stdDeviation="7.5" result="effect1_foregroundBlur_321_562"/>
</filter>
<filter id="filter3_f_321_562" x="165" y="75" width="105" height="107" filterUnits="userSpaceOnUse" color-interpolation-filters="sRGB">
<feFlood flood-opacity="0" result="BackgroundImageFix"/>
<feBlend mode="normal" in="SourceGraphic" in2="BackgroundImageFix" result="shape"/>
<feGaussianBlur stdDeviation="7.5" result="effect1_foregroundBlur_321_562"/>
</filter>
<filter id="filter4_f_321_562" x="52" y="110" width="105" height="107" filterUnits="userSpaceOnUse" color-interpolation-filters="sRGB">
<feFlood flood-opacity="0" result="BackgroundImageFix"/>
<feBlend mode="normal" in="SourceGraphic" in2="BackgroundImageFix" result="shape"/>
<feGaussianBlur stdDeviation="7.5" result="effect1_foregroundBlur_321_562"/>
</filter>
<filter id="filter5_f_321_562" x="278" y="110" width="105" height="107" filterUnits="userSpaceOnUse" color-interpolation-filters="sRGB">
<feFlood flood-opacity="0" result="BackgroundImageFix"/>
<feBlend mode="normal" in="SourceGraphic" in2="BackgroundImageFix" result="shape"/>
<feGaussianBlur stdDeviation="7.5" result="effect1_foregroundBlur_321_562"/>
</filter>
</defs>
</svg>
