<svg width="40" height="40" viewBox="0 0 40 40" fill="none" xmlns="http://www.w3.org/2000/svg">
<path fill-rule="evenodd" clip-rule="evenodd" d="M26.9247 12.9412H15.4495C13.2212 12.9412 11.8777 14.5271 11.8777 16.36V35.4965C11.8777 37.3223 13.68 38.8047 15.9036 38.8047H26.4683C28.6942 38.8047 30.4942 37.3223 30.4942 35.4965V16.36C30.4965 14.5271 29.153 12.9412 26.9247 12.9412ZM28.2824 34.6894C28.2824 35.7153 27.0471 36.5529 25.5294 36.5529H16.8C15.28 36.5529 14.0495 35.7153 14.0495 34.6894V18.9976C14.0495 18.48 14.3812 16.1412 21.2471 18.2235C28.1177 20.3153 28.2824 18.4894 28.2824 18.9976V34.6894Z" fill="#7642F9"/>
<path fill-rule="evenodd" clip-rule="evenodd" d="M25.84 8.13647L22.8471 5.86353V2.78353C22.8471 1.88471 22.0659 1.15765 21.1035 1.15765C20.1435 1.15765 19.3647 1.88706 19.3647 2.78353V5.8047L16.5859 8.13412L16.5129 8.1247V10.5882H25.8424V8.12706L25.84 8.13647Z" fill="#7642F9"/>
</svg>
