<svg width="452" height="406" viewBox="0 0 452 406" fill="none" xmlns="http://www.w3.org/2000/svg">
<path d="M37.9996 3.69056e-06C204 63.1887 245.5 60.2034 413 3.69056e-06V406H37.9996V3.69056e-06Z" fill="#7642F9"/>
<ellipse cx="358.5" cy="281.5" rx="37.5" ry="38.5" fill="#7A46FC"/>
<path d="M38.5 133C43.5559 133 48.5623 133.97 53.2333 135.855C57.9043 137.739 62.1486 140.501 65.7236 143.983C69.2987 147.466 72.1346 151.6 74.0694 156.149C76.0042 160.699 77 165.575 77 170.5C77 175.425 76.0042 180.301 74.0694 184.851C72.1346 189.4 69.2987 193.534 65.7236 197.017C62.1486 200.499 57.9043 203.261 53.2333 205.145C48.5623 207.03 43.5559 208 38.5 208L38.5 170.5L38.5 133Z" fill="#7A46FC"/>
<path d="M412.976 133.489C402.765 133.489 392.973 129.538 385.753 122.506C378.532 115.473 374.476 105.935 374.476 95.9894C374.476 86.0438 378.532 76.5055 385.753 69.4729C392.973 62.4403 402.765 58.4894 412.976 58.4894L412.976 95.9894V133.489Z" fill="#7A46FC"/>
<ellipse cx="163.5" cy="94.5" rx="37.5" ry="38.5" fill="#7A46FC"/>
<ellipse cx="282.5" cy="204.5" rx="37.5" ry="38.5" fill="#7A46FC"/>
<ellipse cx="142.347" cy="270.77" rx="37.5" ry="38.5" transform="rotate(110.908 142.347 270.77)" fill="#7A46FC"/>
</svg>
