<svg width="27" height="33" viewBox="0 0 27 33" fill="none" xmlns="http://www.w3.org/2000/svg">
<path d="M26.7574 27.2825C26.6358 27.5549 26.3699 27.7164 26.0916 27.7164C25.9915 27.7164 25.89 27.6956 25.7928 27.6516L25.1873 27.3774C24.8199 27.2108 24.6558 26.7757 24.821 26.4054C24.9863 26.035 25.4181 25.8701 25.7855 26.0363L26.391 26.3106C26.7586 26.4771 26.9227 26.9122 26.7574 27.2825ZM5.81364 6.74156C4.4868 6.74156 3.40727 7.88783 3.40727 9.29672C3.40727 9.70277 3.73385 10.0319 4.13679 10.0319C4.53973 10.0319 4.86631 9.70277 4.86631 9.29672C4.86631 8.69855 5.2913 8.21187 5.81364 8.21187C6.21658 8.21187 6.54316 7.88277 6.54316 7.47672C6.54316 7.07066 6.21649 6.74156 5.81364 6.74156ZM25.6497 21.9507C25.7358 21.9507 25.8234 21.9353 25.9085 21.9026L26.5292 21.6652C26.9058 21.5211 27.0953 21.0966 26.9523 20.717C26.8093 20.3375 26.3882 20.1463 26.0114 20.2906L25.3907 20.5281C25.0141 20.6721 24.8246 21.0967 24.9675 21.4762C25.0783 21.77 25.3555 21.9507 25.6497 21.9507ZM1.45969 24.5913V26.7463C1.45969 27.9345 2.41893 28.9013 3.59808 28.9013H11.9807C12.3836 28.9013 12.7102 29.2304 12.7102 29.6364C12.7102 30.0425 12.3836 30.3716 11.9807 30.3716H3.59808C1.61443 30.3716 0.000648416 28.7453 0.000648416 26.7463V23.887C0.000243127 23.8768 0 23.8665 0 23.8561C0 23.8457 0.000162069 23.8354 0.000648416 23.8252V12.3265C0.000243127 12.3163 0 12.306 0 12.2956C0 12.2852 0.000162069 12.2749 0.000648416 12.2647V7.33205C0.000648416 5.58483 1.23354 4.12244 2.86856 3.78165V0.735158C2.86856 0.329106 3.19514 0 3.59808 0H15.07C15.473 0 15.7996 0.329106 15.7996 0.735158V3.78165C17.4346 4.12244 18.6675 5.58483 18.6675 7.33205V17.3033C18.6675 17.7094 18.3409 18.0385 17.938 18.0385C17.535 18.0385 17.2084 17.7094 17.2084 17.3033V13.0308H1.45969V23.1209H11.9807C12.3836 23.1209 12.7102 23.45 12.7102 23.856C12.7102 24.2621 12.3836 24.5912 11.9807 24.5912H1.45969V24.5913ZM4.3276 3.70675H14.3405V1.47032H4.3276V3.70675ZM1.45969 11.5604H17.2084V7.33205C17.2084 6.14379 16.2492 5.17706 15.07 5.17706H3.59808C2.41893 5.17706 1.45969 6.14379 1.45969 7.33205V11.5604ZM3.40743 15.1857V20.966C3.40743 21.372 3.73401 21.7011 4.13695 21.7011C4.53989 21.7011 4.86647 21.372 4.86647 20.966V15.1857C4.86647 14.7797 4.53989 14.4506 4.13695 14.4506C3.73401 14.4506 3.40743 14.7798 3.40743 15.1857ZM21.7454 23.5944V29.3749C21.7454 31.3738 20.1316 33 18.1481 33C16.1642 33 14.5505 31.3738 14.5505 29.3749V26.4998C14.5504 26.4947 14.5503 26.4897 14.5503 26.4845C14.5503 26.4794 14.5504 26.4744 14.5505 26.4693V23.5944C14.5505 21.5954 16.1642 19.9692 18.1477 19.9692H18.1481C20.1316 19.9692 21.7454 21.5954 21.7454 23.5944ZM20.2864 23.5944C20.2864 22.4061 19.3271 21.4395 18.1481 21.4395H18.1477C16.9687 21.4395 16.0095 22.4061 16.0095 23.5944V25.7494H18.1479C18.5508 25.7494 18.8774 26.0785 18.8774 26.4845C18.8774 26.8906 18.5508 27.2197 18.1479 27.2197H16.0095V29.3749C16.0095 30.563 16.9687 31.5297 18.1477 31.5297C19.3271 31.5297 20.2864 30.563 20.2864 29.3749V23.5944ZM22.483 15.9354C22.1157 15.7689 21.6837 15.9341 21.5184 16.3045L21.2463 16.9148C21.0811 17.2851 21.245 17.7202 21.6126 17.8867C21.7097 17.9307 21.8112 17.9515 21.9113 17.9515C22.1897 17.9515 22.4556 17.79 22.5771 17.5176L22.8493 16.9073C23.0145 16.537 22.8504 16.1018 22.483 15.9354Z" fill="#7642F9"/>
</svg>
