<svg width="21" height="22" viewBox="0 0 21 22" fill="none" xmlns="http://www.w3.org/2000/svg">
<g id="delete_svgrepo.com">
<path id="Vector" d="M16.4497 15.7983C16.6493 16.0245 16.7577 16.323 16.7519 16.6311C16.7462 16.9391 16.6269 17.233 16.419 17.4509C16.2111 17.6689 15.9307 17.7941 15.6366 17.8003C15.3426 17.8065 15.0576 17.6932 14.8415 17.4842L10.5 12.936L6.15856 17.4842C6.0545 17.6021 5.92878 17.6968 5.78894 17.7626C5.6491 17.8283 5.49801 17.8639 5.34475 17.867C5.19149 17.8701 5.03921 17.8408 4.89703 17.7807C4.75486 17.7207 4.62572 17.6312 4.51736 17.5176C4.40901 17.404 4.32367 17.2687 4.26646 17.1197C4.20925 16.9707 4.18135 16.8111 4.18443 16.6506C4.18752 16.49 4.22152 16.3318 4.28441 16.1853C4.3473 16.0389 4.43777 15.9072 4.5504 15.7983L8.89187 11.2501L4.5504 6.70418C4.43777 6.59524 4.3473 6.4636 4.28441 6.31715C4.22152 6.17069 4.18752 6.01244 4.18443 5.85189C4.18135 5.69133 4.20925 5.53177 4.26646 5.38279C4.32367 5.2338 4.40901 5.09845 4.51736 4.98486C4.62572 4.87126 4.75486 4.78177 4.89703 4.72173C5.03921 4.66169 5.19149 4.63236 5.34475 4.63548C5.49801 4.6386 5.6491 4.67412 5.78894 4.7399C5.92878 4.80567 6.0545 4.90036 6.15856 5.01828L10.5 9.56533L14.8415 5.01713C15.0576 4.8081 15.3426 4.69483 15.6366 4.70103C15.9307 4.70723 16.2111 4.83243 16.419 5.05039C16.6269 5.26835 16.7462 5.56216 16.7519 5.87024C16.7577 6.17832 16.6493 6.47676 16.4497 6.70302L12.1082 11.2501L16.4497 15.7983Z" fill="#7642F9"/>
</g>
</svg>
